<?xml version="1.0" encoding="UTF-8"?>
<svg id="Layer_1" data-name="Layer 1" xmlns="http://www.w3.org/2000/svg" viewBox="0 0 500 500">
  <path d="M160.46,487.49c-49.21,0-88.25-13.37-117.14-40.12C14.44,420.63,0,384.58,0,339.22h96.28c0,19.69,5.78,35.41,17.33,47.18,11.55,11.77,27.17,17.65,46.86,17.65s35.3-5.67,46.86-17.01c11.55-11.33,17.33-26.85,17.33-46.53V12.51h96.28v327.99c0,45.36-14.34,81.19-43,107.51-28.67,26.32-67.83,39.47-117.46,39.47Z"/>
  <path d="M435.17,487.49c-19.26,0-34.88-6-46.86-17.97-11.98-11.98-17.97-27.6-17.97-46.86s5.99-34.87,17.97-46.86c11.97-11.97,27.6-17.97,46.86-17.97s34.87,6,46.86,17.97c11.97,11.98,17.97,27.6,17.97,46.86s-6,34.88-17.97,46.86c-11.98,11.97-27.6,17.97-46.86,17.97Z"/>
</svg>